<?xml version="1.0" encoding="UTF-8" standalone="no"?>
<!-- Created with Inkscape (http://www.inkscape.org/) -->

<svg
   width="1330.3937"
   height="272.12598"
   viewBox="0 0 351.99998 71.999998"
   version="1.1"
   id="svg1"
   sodipodi:docname="logo-vector-with-title.svg"
   inkscape:version="1.2.2 (b0a8486541, 2022-12-01)"
   inkscape:export-filename="logo-vector-with-title.png"
   inkscape:export-xdpi="35"
   inkscape:export-ydpi="35"
   xmlns:inkscape="http://www.inkscape.org/namespaces/inkscape"
   xmlns:sodipodi="http://sodipodi.sourceforge.net/DTD/sodipodi-0.dtd"
   xmlns:xlink="http://www.w3.org/1999/xlink"
   xmlns="http://www.w3.org/2000/svg"
   xmlns:svg="http://www.w3.org/2000/svg">
  <sodipodi:namedview
     id="namedview1"
     pagecolor="#ffffff"
     bordercolor="#000000"
     borderopacity="0.25"
     inkscape:showpageshadow="2"
     inkscape:pageopacity="0"
     inkscape:pagecheckerboard="true"
     inkscape:deskcolor="#d1d1d1"
     inkscape:document-units="mm"
     showguides="true"
     inkscape:zoom="0.77781746"
     inkscape:cx="618.39702"
     inkscape:cy="251.98714"
     inkscape:window-width="1920"
     inkscape:window-height="1043"
     inkscape:window-x="0"
     inkscape:window-y="0"
     inkscape:window-maximized="1"
     inkscape:current-layer="layer1"
     showgrid="false" />
  <defs
     id="defs1">
    <linearGradient
       inkscape:collect="always"
       id="linearGradient6131">
      <stop
         style="stop-color:#3771c8;stop-opacity:1;"
         offset="0"
         id="stop6127" />
      <stop
         style="stop-color:#3771c8;stop-opacity:1;"
         offset="1"
         id="stop6129" />
    </linearGradient>
    <linearGradient
       inkscape:collect="always"
       xlink:href="#linearGradient6131"
       id="linearGradient6133"
       x1="165.52174"
       y1="117.17612"
       x2="423.38733"
       y2="86.910927"
       gradientUnits="userSpaceOnUse"
       gradientTransform="translate(0.52916667)" />
  </defs>
  <g
     inkscape:label="Layer 1"
     inkscape:groupmode="layer"
     id="layer1"
     transform="translate(-83.479843,-66.043526)">
    <rect
       style="fill:#ffffff;stroke:none;stroke-width:2;stroke-dasharray:none;stroke-opacity:1"
       id="rect3337"
       width="350"
       height="70"
       x="84.479843"
       y="67.043526"
       rx="5"
       ry="5" />
    <path
       sodipodi:type="star"
       style="fill:#3771c8;fill-rule:evenodd;stroke:#214478;stroke-width:4;stroke-linecap:round;stroke-linejoin:round;stroke-dasharray:none;paint-order:markers fill stroke"
       id="path1"
       inkscape:flatsided="true"
       sodipodi:sides="6"
       sodipodi:cx="0"
       sodipodi:cy="0"
       sodipodi:r1="19.709715"
       sodipodi:r2="17.069115"
       sodipodi:arg1="0.52359878"
       sodipodi:arg2="1.0471976"
       inkscape:rounded="0.6"
       inkscape:randomized="0"
       d="M 17.069114,9.8548575 C 11.156199,20.096326 11.825829,19.709715 -8.6756275e-8,19.709715 -11.825829,19.709715 -11.156199,20.096326 -17.069114,9.8548574 c -5.912914,-10.24146833 -5.912914,-9.46824667 0,-19.7097149 C -11.156199,-20.096326 -11.825829,-19.709715 8.6756273e-8,-19.709715 11.825829,-19.709715 11.156199,-20.096326 17.069114,-9.8548574 c 5.912914,10.24146833 5.912914,9.46824667 0,19.7097149 z"
       transform="matrix(1.4409017,0,0,1.4409017,121.89198,102.04353)" />
    <path
       sodipodi:type="star"
       style="opacity:0.99;fill:#55ddff;fill-opacity:0.485577;fill-rule:evenodd;stroke:none;stroke-width:1.2;stroke-linecap:round;stroke-linejoin:round"
       id="path2"
       inkscape:flatsided="true"
       sodipodi:sides="4"
       sodipodi:cx="30.519939"
       sodipodi:cy="18.858589"
       sodipodi:r1="12.838813"
       sodipodi:r2="9.0784121"
       sodipodi:arg1="0.78539816"
       sodipodi:arg2="1.5707963"
       inkscape:rounded="0.7"
       inkscape:randomized="0"
       d="m 39.598351,27.937001 c -8.987169,8.987169 -9.169654,8.987169 -18.156823,0 -8.987169,-8.987169 -8.987169,-9.169654 0,-18.1568234 8.987169,-8.98716902 9.169654,-8.98716902 18.156823,-10e-8 8.987169,8.9871685 8.987169,9.1696545 0,18.1568235 z"
       transform="matrix(0.66137024,0,0,1.1299014,116.53166,80.735189)" />
    <g
       aria-label="ic"
       id="text1"
       style="font-weight:bold;font-size:26.4583px;font-family:Calibri;-inkscape-font-specification:'Calibri Bold';text-align:center;letter-spacing:0px;text-anchor:middle;fill:#ffffff;fill-rule:evenodd;stroke-width:1.72908;stroke-linecap:round;stroke-linejoin:round"
       transform="translate(81.529111,59.900057)">
      <path
         d="m 25.802941,31.443893 q 0,1.033527 -0.71055,1.718239 -0.697631,0.671793 -1.666562,0.671793 -0.981851,0 -1.692401,-0.697631 -0.697631,-0.71055 -0.697631,-1.692401 0,-0.968932 0.697631,-1.666563 0.71055,-0.71055 1.692401,-0.71055 0.968931,0 1.666562,0.71055 0.71055,0.697631 0.71055,1.666563 z m 1.744078,14.314353 v 3.12642 h -8.384491 v -3.12642 h 2.067055 v -7.273448 h -2.067055 v -3.178097 h 6.369113 v 10.451545 z"
         style="font-family:'Rockwell Nova';-inkscape-font-specification:'Rockwell Nova Bold'"
         id="path882" />
      <path
         d="m 40.168972,36.443581 v -1.13688 h 2.958472 v 5.503533 h -3.061825 q -1.085204,-2.247922 -3.307287,-2.247922 -1.356505,0 -2.247922,0.99477 -0.878499,0.99477 -0.878499,2.480466 0,1.640725 0.839741,2.70009 0.85266,1.046446 2.260841,1.046446 1.020609,0 1.937864,-0.56844 0.917256,-0.56844 1.498615,-1.601967 l 3.358964,1.485696 q -1.111042,2.092892 -2.674252,3.100582 -1.563211,1.007689 -4.211624,1.007689 -3.436479,0 -5.451857,-1.873269 -2.002459,-1.886187 -2.002459,-5.219313 0,-1.98954 0.917255,-3.578588 0.930175,-1.589048 2.506304,-2.493385 1.576129,-0.917255 3.449398,-0.917255 2.144569,0 4.108271,1.317747 z"
         style="font-family:'Rockwell Nova';-inkscape-font-specification:'Rockwell Nova Bold'"
         id="path884" />
    </g>
    <g
       aria-label="e"
       id="text2"
       style="font-weight:bold;font-size:26.4583px;font-family:Calibri;-inkscape-font-specification:'Calibri Bold';text-align:center;letter-spacing:0px;text-anchor:middle;fill:#ffffff;fill-rule:evenodd;stroke-width:1.72908;stroke-linecap:round;stroke-linejoin:round"
       transform="translate(81.529111,59.900057)">
      <path
         d="M 62.327849,43.00648 H 52.199281 q 0.155029,1.56321 1.072284,2.480465 0.930175,0.904337 2.390032,0.904337 1.614887,0 3.152259,-1.601968 l 3.358964,1.085204 q -1.111042,1.666563 -2.751767,2.506304 -1.640725,0.826822 -3.888647,0.826822 -2.247922,0 -3.97908,-0.839741 -1.718239,-0.85266 -2.674252,-2.402951 -0.943093,-1.550291 -0.943093,-3.643184 0,-2.067055 0.981851,-3.746537 0.99477,-1.679482 2.674251,-2.622575 1.692401,-0.956013 3.669023,-0.956013 2.144569,0 3.733617,0.99477 1.589048,0.981851 2.441708,2.803443 0.865579,1.808673 0.891418,4.211624 z M 55.0544,37.8776 q -1.162718,0 -1.873268,0.671793 -0.697631,0.671793 -0.878498,2.054136 h 5.658562 Q 57.780328,39.389134 56.966426,38.639827 56.165442,37.8776 55.0544,37.8776 Z"
         style="font-family:'Rockwell Nova';-inkscape-font-specification:'Rockwell Nova Bold'"
         id="path887" />
    </g>
    <g
       aria-label="IceBox Application"
       id="text852"
       style="font-size:35.2778px;font-family:Consolas;-inkscape-font-specification:Consolas;fill:#214478;stroke-width:0.264583;fill-opacity:1">
      <path
         d="m 169.01369,110.45817 q 0,0.13781 -0.0689,0.24116 -0.0689,0.10335 -0.24116,0.17226 -0.17226,0.0517 -0.46509,0.0861 -0.27561,0.0517 -0.70624,0.0517 -0.41342,0 -0.70625,-0.0517 -0.29283,-0.0345 -0.46509,-0.0861 -0.17225,-0.0689 -0.24115,-0.17226 -0.0689,-0.10335 -0.0689,-0.24116 V 89.064116 q 0,-0.137804 0.0689,-0.241157 0.0861,-0.103352 0.25838,-0.155029 0.18948,-0.0689 0.46509,-0.103353 0.29283,-0.05168 0.68902,-0.05168 0.43063,0 0.70624,0.05168 0.29283,0.03445 0.46509,0.103353 0.17225,0.05168 0.24116,0.155029 0.0689,0.103353 0.0689,0.241157 z"
         style="font-family:Calibri;-inkscape-font-specification:Calibri;fill:#214478;fill-opacity:1"
         id="path878" />
      <path
         d="m 185.75686,108.11551 q 0,0.29283 -0.0172,0.51676 -0.0172,0.20671 -0.0689,0.36174 -0.0345,0.1378 -0.10336,0.25838 -0.0517,0.10335 -0.27561,0.32728 -0.2067,0.20671 -0.72347,0.53399 -0.51676,0.31006 -1.17133,0.56845 -0.63734,0.24115 -1.39526,0.39618 -0.75793,0.15503 -1.56752,0.15503 -1.67088,0 -2.96279,-0.55121 -1.29191,-0.55122 -2.17041,-1.60198 -0.86127,-1.06798 -1.32636,-2.60104 -0.44786,-1.5503 -0.44786,-3.56568 0,-2.29099 0.55121,-3.927412 0.56844,-1.653647 1.53307,-2.704402 0.98185,-1.050755 2.29099,-1.550294 1.32636,-0.516764 2.85943,-0.516764 0.7407,0 1.42972,0.137803 0.70624,0.137804 1.29191,0.361736 0.58567,0.223931 1.03353,0.516764 0.46509,0.292834 0.67179,0.49954 0.20671,0.206705 0.27561,0.327284 0.0861,0.120578 0.1378,0.292833 0.0517,0.15503 0.0689,0.361735 0.0172,0.206706 0.0172,0.516765 0,0.671794 -0.15503,0.947402 -0.15503,0.258382 -0.37896,0.258382 -0.25838,0 -0.60289,-0.275607 -0.32729,-0.292834 -0.84405,-0.637344 -0.51676,-0.344509 -1.25746,-0.620117 -0.72347,-0.292834 -1.72255,-0.292834 -2.04983,0 -3.15226,1.584745 -1.08521,1.56752 -1.08521,4.564755 0,1.49862 0.27561,2.6355 0.29283,1.11966 0.84405,1.87758 0.55121,0.75792 1.34358,1.13688 0.8096,0.36174 1.84313,0.36174 0.98186,0 1.72255,-0.31006 0.7407,-0.31006 1.27469,-0.6718 0.55121,-0.37896 0.91295,-0.67179 0.37896,-0.31006 0.58566,-0.31006 0.12058,0 0.20671,0.0689 0.0861,0.0689 0.1378,0.24116 0.0689,0.15503 0.0861,0.41341 0.0344,0.24116 0.0344,0.58567 z"
         style="font-family:Calibri;-inkscape-font-specification:Calibri;fill:#214478;fill-opacity:1"
         id="path880" />
      <path
         d="m 202.75842,102.05214 q 0,0.67179 -0.34451,0.96462 -0.32728,0.27561 -0.75792,0.27561 h -10.16304 q 0,1.29191 0.25838,2.32544 0.25839,1.03353 0.86128,1.77423 0.60289,0.74069 1.56752,1.13688 0.96462,0.39619 2.35989,0.39619 1.10243,0 1.96371,-0.17226 0.86127,-0.18948 1.48139,-0.41341 0.63734,-0.22393 1.03353,-0.39619 0.41341,-0.18948 0.62011,-0.18948 0.12058,0 0.20671,0.0689 0.10335,0.0517 0.15503,0.17226 0.0517,0.12058 0.0689,0.34451 0.0344,0.2067 0.0344,0.51676 0,0.22393 -0.0172,0.39619 -0.0172,0.15503 -0.0517,0.29283 -0.0172,0.12058 -0.0861,0.22393 -0.0517,0.10336 -0.15503,0.20671 -0.0861,0.0861 -0.55121,0.31006 -0.46509,0.2067 -1.20579,0.41341 -0.74069,0.20671 -1.72255,0.36174 -0.96462,0.17225 -2.06705,0.17225 -1.91203,0 -3.35897,-0.53399 -1.42972,-0.53399 -2.41157,-1.58474 -0.98186,-1.05076 -1.48139,-2.6355 -0.49954,-1.58475 -0.49954,-3.68626 0,-1.99816 0.51676,-3.582901 0.51677,-1.60197 1.48139,-2.704401 0.98186,-1.119657 2.35989,-1.705324 1.37804,-0.602892 3.08337,-0.602892 1.8259,0 3.10059,0.585667 1.29191,0.585666 2.11873,1.584745 0.82682,0.981853 1.20578,2.325441 0.39619,1.326365 0.39619,2.842205 z m -2.85943,-0.84405 q 0.0517,-2.239318 -0.99908,-3.514004 -1.03353,-1.274686 -3.08336,-1.274686 -1.05076,0 -1.84313,0.396186 -0.79237,0.396187 -1.32636,1.050755 -0.53399,0.654569 -0.82682,1.533069 -0.29284,0.86127 -0.32729,1.80868 z"
         style="font-family:Calibri;-inkscape-font-specification:Calibri;fill:#214478;fill-opacity:1"
         id="path883" />
      <path
         d="m 222.10264,104.51538 q 0,1.05075 -0.2756,1.94648 -0.25839,0.8785 -0.7407,1.58475 -0.48231,0.70624 -1.17133,1.24023 -0.6718,0.53399 -1.53307,0.89573 -0.84405,0.36173 -1.8259,0.55121 -0.96463,0.17226 -2.22209,0.17226 h -5.82222 q -0.39618,0 -0.75792,-0.25839 -0.34451,-0.2756 -0.34451,-0.9474 V 89.822038 q 0,-0.671794 0.34451,-0.930177 0.36174,-0.275607 0.75792,-0.275607 h 5.0643 q 1.99815,0 3.27284,0.37896 1.27469,0.378961 2.11874,1.102432 0.86127,0.72347 1.29191,1.774225 0.43063,1.050755 0.43063,2.377117 0,0.792373 -0.18948,1.515844 -0.18948,0.72347 -0.56844,1.343588 -0.36173,0.602892 -0.93017,1.085205 -0.55122,0.482314 -1.27469,0.792373 0.91295,0.172255 1.70532,0.637343 0.79238,0.447859 1.37804,1.154109 0.60289,0.70624 0.9474,1.65365 0.34451,0.9474 0.34451,2.08428 z m -4.4614,-9.973558 q 0,-0.809598 -0.22393,-1.464167 -0.22393,-0.654568 -0.70624,-1.102431 -0.48232,-0.465088 -1.25746,-0.706245 -0.77515,-0.241157 -2.04984,-0.241157 h -3.06613 v 7.21748 h 3.37619 q 1.15411,0 1.86035,-0.292833 0.70625,-0.310059 1.17134,-0.809598 0.46509,-0.516765 0.67179,-1.188559 0.22393,-0.68902 0.22393,-1.41249 z m 1.34359,10.145808 q 0,-0.99907 -0.32728,-1.757 -0.31006,-0.75792 -0.93018,-1.27468 -0.60289,-0.51677 -1.53307,-0.77515 -0.91295,-0.27561 -2.30821,-0.27561 h -3.54845 v 7.85483 h 4.30637 q 1.0163,0 1.77422,-0.24116 0.75792,-0.24116 1.32637,-0.70624 0.58566,-0.48232 0.91295,-1.18856 0.32728,-0.70625 0.32728,-1.63643 z"
         style="font-family:Calibri;-inkscape-font-specification:Calibri;fill:#214478;fill-opacity:1"
         id="path885" />
      <path
         d="m 240.68895,102.55167 q 0,1.89481 -0.49954,3.49678 -0.49954,1.58474 -1.49862,2.73885 -0.98185,1.15411 -2.48047,1.80868 -1.48139,0.63734 -3.4451,0.63734 -1.91203,0 -3.34174,-0.56844 -1.41249,-0.56844 -2.3599,-1.65365 -0.9474,-1.0852 -1.41249,-2.6355 -0.46508,-1.55029 -0.46508,-3.514 0,-1.8948 0.48231,-3.479546 0.49954,-1.60197 1.48139,-2.756078 0.99908,-1.154108 2.48047,-1.791451 1.48139,-0.637343 3.46233,-0.637343 1.91202,0 3.32451,0.568441 1.42972,0.568441 2.37712,1.653647 0.9474,1.085206 1.41249,2.6355 0.48232,1.55029 0.48232,3.49677 z m -2.99724,0.18948 q 0,-1.25746 -0.24116,-2.37711 -0.22393,-1.11966 -0.75792,-1.963709 -0.53399,-0.844049 -1.44694,-1.326362 -0.91295,-0.499539 -2.27376,-0.499539 -1.25746,0 -2.17041,0.447862 -0.89573,0.447863 -1.4814,1.274686 -0.58566,0.809598 -0.8785,1.929252 -0.2756,1.11966 -0.2756,2.44602 0,1.27469 0.22393,2.39435 0.24115,1.11965 0.77514,1.9637 0.55122,0.82682 1.46417,1.32636 0.91295,0.48232 2.27376,0.48232 1.24024,0 2.15319,-0.44787 0.91295,-0.44786 1.49862,-1.25746 0.58567,-0.80959 0.86127,-1.92925 0.27561,-1.11966 0.27561,-2.46325 z"
         style="font-family:Calibri;-inkscape-font-specification:Calibri;fill:#214478;fill-opacity:1"
         id="path888" />
      <path
         d="m 255.93351,110.14811 q 0.1378,0.24116 0.1378,0.41342 0,0.15503 -0.17225,0.25838 -0.15503,0.10335 -0.49954,0.1378 -0.32729,0.0517 -0.86128,0.0517 -0.51676,0 -0.82682,-0.0344 -0.29283,-0.0172 -0.48231,-0.0689 -0.17226,-0.0689 -0.27561,-0.15503 -0.0861,-0.10336 -0.15503,-0.22393 l -3.72071,-6.1495 -3.70348,6.1495 q -0.0689,0.12057 -0.17225,0.22393 -0.0861,0.0861 -0.27561,0.15503 -0.17225,0.0517 -0.46509,0.0689 -0.29283,0.0344 -0.77515,0.0344 -0.49953,0 -0.82682,-0.0517 -0.31006,-0.0345 -0.46509,-0.1378 -0.1378,-0.10335 -0.1378,-0.25838 0.0172,-0.17226 0.17225,-0.41342 l 4.82314,-7.56198 -4.56475,-7.286387 q -0.13781,-0.241157 -0.15503,-0.396186 0,-0.172255 0.15503,-0.275608 0.17225,-0.120578 0.49954,-0.155029 0.34451,-0.03445 0.89572,-0.03445 0.49954,0 0.79237,0.03445 0.31006,0.01722 0.48232,0.0689 0.17225,0.05168 0.25838,0.137804 0.0861,0.08613 0.15503,0.206706 l 3.53122,5.770538 3.58291,-5.770538 q 0.0689,-0.103353 0.15503,-0.189481 0.0861,-0.08613 0.22393,-0.137804 0.15503,-0.0689 0.41341,-0.08613 0.27561,-0.03445 0.74069,-0.03445 0.49954,0 0.8096,0.03445 0.32729,0.03445 0.48232,0.137804 0.15503,0.08613 0.1378,0.258382 -0.0172,0.172255 -0.17225,0.430637 L 251.14482,102.5 Z"
         style="font-family:Calibri;-inkscape-font-specification:Calibri;fill:#214478;fill-opacity:1"
         id="path890" />
      <path
         d="m 284.45892,109.85528 q 0.1378,0.37896 0.1378,0.62012 0.0172,0.22393 -0.12058,0.34451 -0.1378,0.12058 -0.46509,0.15503 -0.31005,0.0344 -0.84404,0.0344 -0.53399,0 -0.86128,-0.0344 -0.31006,-0.0172 -0.48231,-0.0689 -0.15503,-0.0689 -0.24116,-0.17226 -0.0689,-0.10335 -0.1378,-0.25838 l -1.91203,-5.42603 h -9.26732 l -1.8259,5.35713 q -0.0517,0.15503 -0.1378,0.27561 -0.0861,0.10335 -0.25838,0.18948 -0.15503,0.0689 -0.46509,0.10335 -0.29284,0.0344 -0.77515,0.0344 -0.49954,0 -0.82682,-0.0517 -0.31006,-0.0345 -0.44787,-0.15503 -0.12057,-0.12057 -0.12057,-0.34451 0.0172,-0.24115 0.15503,-0.62011 l 7.47586,-20.705042 q 0.0689,-0.18948 0.17225,-0.310059 0.12058,-0.120578 0.32729,-0.18948 0.22393,-0.0689 0.55121,-0.08613 0.34451,-0.03445 0.86128,-0.03445 0.55121,0 0.91295,0.03445 0.36173,0.01722 0.58566,0.08613 0.22394,0.0689 0.34451,0.206706 0.12058,0.120578 0.18948,0.310059 z m -9.5946,-18.276242 h -0.0172 l -3.84128,11.110442 h 7.75147 z"
         style="font-family:Calibri;-inkscape-font-specification:Calibri;fill:#214478;fill-opacity:1"
         id="path892" />
      <path
         d="m 302.11504,102.48277 q 0,2.03261 -0.44786,3.65181 -0.43064,1.61919 -1.29191,2.75607 -0.84405,1.11966 -2.10151,1.73978 -1.25746,0.60289 -2.87666,0.60289 -0.68902,0 -1.27469,-0.1378 -0.58566,-0.13781 -1.1541,-0.43064 -0.55122,-0.29283 -1.10244,-0.7407 -0.55121,-0.44786 -1.17133,-1.05075 v 7.75147 q 0,0.1378 -0.0689,0.24116 -0.0689,0.10335 -0.22393,0.17225 -0.15503,0.0689 -0.43064,0.10335 -0.27561,0.0344 -0.70625,0.0344 -0.41341,0 -0.68901,-0.0344 -0.27561,-0.0345 -0.44787,-0.10335 -0.15503,-0.0689 -0.22393,-0.17225 -0.0517,-0.10336 -0.0517,-0.24116 V 94.972459 q 0,-0.155029 0.0517,-0.241157 0.0517,-0.103353 0.20671,-0.172255 0.15503,-0.0689 0.39618,-0.08613 0.24116,-0.03445 0.58567,-0.03445 0.36174,0 0.58567,0.03445 0.24115,0.01722 0.39618,0.08613 0.15503,0.0689 0.20671,0.172255 0.0689,0.08613 0.0689,0.241157 v 2.084284 q 0.70625,-0.72347 1.36081,-1.25746 0.65457,-0.533991 1.30914,-0.8785 0.6718,-0.361736 1.36082,-0.533991 0.70624,-0.18948 1.48139,-0.18948 1.6881,0 2.87665,0.654569 1.18856,0.654568 1.92926,1.79145 0.75792,1.136883 1.10243,2.652726 0.34451,1.498613 0.34451,3.186713 z m -2.99724,0.32729 q 0,-1.18856 -0.18948,-2.29099 -0.17225,-1.11966 -0.62011,-1.980935 -0.43064,-0.861274 -1.17134,-1.378039 -0.74069,-0.516765 -1.84312,-0.516765 -0.55122,0 -1.08521,0.172255 -0.53399,0.15503 -1.08521,0.516765 -0.55121,0.34451 -1.1541,0.930176 -0.6029,0.568442 -1.27469,1.412491 v 6.166722 q 1.17133,1.42972 2.22209,2.18764 1.05075,0.75792 2.20486,0.75792 1.06798,0 1.8259,-0.51676 0.77515,-0.51677 1.24024,-1.37804 0.48231,-0.86128 0.70624,-1.92926 0.22393,-1.06798 0.22393,-2.15318 z"
         style="font-family:Calibri;-inkscape-font-specification:Calibri;fill:#214478;fill-opacity:1"
         id="path894" />
      <path
         d="m 320.64967,102.48277 q 0,2.03261 -0.44786,3.65181 -0.43064,1.61919 -1.29191,2.75607 -0.84405,1.11966 -2.10151,1.73978 -1.25747,0.60289 -2.87666,0.60289 -0.68902,0 -1.27469,-0.1378 -0.58566,-0.13781 -1.15411,-0.43064 -0.55121,-0.29283 -1.10243,-0.7407 -0.55121,-0.44786 -1.17133,-1.05075 v 7.75147 q 0,0.1378 -0.0689,0.24116 -0.0689,0.10335 -0.22393,0.17225 -0.15503,0.0689 -0.43064,0.10335 -0.27561,0.0344 -0.70625,0.0344 -0.41341,0 -0.68901,-0.0344 -0.27561,-0.0345 -0.44787,-0.10335 -0.15503,-0.0689 -0.22393,-0.17225 -0.0517,-0.10336 -0.0517,-0.24116 V 94.972459 q 0,-0.155029 0.0517,-0.241157 0.0517,-0.103353 0.20671,-0.172255 0.15503,-0.0689 0.39618,-0.08613 0.24116,-0.03445 0.58567,-0.03445 0.36174,0 0.58567,0.03445 0.24115,0.01722 0.39618,0.08613 0.15503,0.0689 0.20671,0.172255 0.0689,0.08613 0.0689,0.241157 v 2.084284 q 0.70625,-0.72347 1.36081,-1.25746 0.65457,-0.533991 1.30914,-0.8785 0.6718,-0.361736 1.36082,-0.533991 0.70624,-0.18948 1.48139,-0.18948 1.68809,0 2.87665,0.654569 1.18856,0.654568 1.92926,1.79145 0.75792,1.136883 1.10243,2.652726 0.34451,1.498613 0.34451,3.186713 z m -2.99724,0.32729 q 0,-1.18856 -0.18948,-2.29099 -0.17225,-1.11966 -0.62011,-1.980935 -0.43064,-0.861274 -1.17134,-1.378039 -0.74069,-0.516765 -1.84312,-0.516765 -0.55122,0 -1.08521,0.172255 -0.53399,0.15503 -1.08521,0.516765 -0.55121,0.34451 -1.1541,0.930176 -0.6029,0.568442 -1.27469,1.412491 v 6.166722 q 1.17133,1.42972 2.22209,2.18764 1.05075,0.75792 2.20486,0.75792 1.06798,0 1.8259,-0.51676 0.77515,-0.51677 1.24024,-1.37804 0.48231,-0.86128 0.70624,-1.92926 0.22393,-1.06798 0.22393,-2.15318 z"
         style="font-family:Calibri;-inkscape-font-specification:Calibri;fill:#214478;fill-opacity:1"
         id="path896" />
      <path
         d="m 327.76379,110.4754 q 0,0.1378 -0.0689,0.24116 -0.0689,0.0861 -0.22393,0.15503 -0.15503,0.0689 -0.43064,0.10335 -0.27561,0.0344 -0.70624,0.0344 -0.41341,0 -0.68902,-0.0344 -0.27561,-0.0345 -0.44787,-0.10335 -0.15502,-0.0689 -0.22393,-0.15503 -0.0517,-0.10336 -0.0517,-0.24116 V 87.462146 q 0,-0.137804 0.0517,-0.241157 0.0689,-0.103353 0.22393,-0.172255 0.17226,-0.0689 0.44787,-0.103353 0.27561,-0.03445 0.68902,-0.03445 0.43063,0 0.70624,0.03445 0.27561,0.03445 0.43064,0.103353 0.15503,0.0689 0.22393,0.172255 0.0689,0.103353 0.0689,0.241157 z"
         style="font-family:Calibri;-inkscape-font-specification:Calibri;fill:#214478;fill-opacity:1"
         id="path898" />
      <path
         d="m 335.85977,110.4754 q 0,0.1378 -0.0689,0.24116 -0.0689,0.0861 -0.22393,0.15503 -0.15503,0.0689 -0.43064,0.10335 -0.27561,0.0344 -0.70625,0.0344 -0.41341,0 -0.68901,-0.0344 -0.27561,-0.0345 -0.44787,-0.10335 -0.15503,-0.0689 -0.22393,-0.15503 -0.0517,-0.10336 -0.0517,-0.24116 V 94.972459 q 0,-0.120578 0.0517,-0.223931 0.0689,-0.103353 0.22393,-0.172255 0.17226,-0.0689 0.44787,-0.103353 0.2756,-0.03445 0.68901,-0.03445 0.43064,0 0.70625,0.03445 0.27561,0.03445 0.43064,0.103353 0.15503,0.0689 0.22393,0.172255 0.0689,0.103353 0.0689,0.223931 z m 0.32728,-20.73949 q 0,0.999079 -0.37896,1.360814 -0.37896,0.361735 -1.39526,0.361735 -0.99908,0 -1.37804,-0.34451 -0.36174,-0.361735 -0.36174,-1.343588 0,-0.999078 0.37897,-1.360813 0.37896,-0.361736 1.39526,-0.361736 0.99908,0 1.36081,0.361736 0.37896,0.344509 0.37896,1.326362 z"
         style="font-family:Calibri;-inkscape-font-specification:Calibri;fill:#214478;fill-opacity:1"
         id="path900" />
      <path
         d="m 352.25843,108.11551 q 0,0.29283 -0.0172,0.51676 -0.0172,0.20671 -0.0689,0.36174 -0.0344,0.1378 -0.10336,0.25838 -0.0517,0.10335 -0.2756,0.32728 -0.20671,0.20671 -0.72347,0.53399 -0.51677,0.31006 -1.17134,0.56845 -0.63734,0.24115 -1.39526,0.39618 -0.75792,0.15503 -1.56752,0.15503 -1.67087,0 -2.96279,-0.55121 -1.29191,-0.55122 -2.17041,-1.60198 -0.86127,-1.06798 -1.32636,-2.60104 -0.44786,-1.5503 -0.44786,-3.56568 0,-2.29099 0.55121,-3.927412 0.56844,-1.653647 1.53307,-2.704402 0.98185,-1.050755 2.29099,-1.550294 1.32636,-0.516764 2.85943,-0.516764 0.7407,0 1.42972,0.137803 0.70624,0.137804 1.29191,0.361736 0.58567,0.223931 1.03353,0.516764 0.46509,0.292834 0.67179,0.49954 0.20671,0.206705 0.27561,0.327284 0.0861,0.120578 0.1378,0.292833 0.0517,0.15503 0.0689,0.361735 0.0172,0.206706 0.0172,0.516765 0,0.671794 -0.15503,0.947402 -0.15503,0.258382 -0.37896,0.258382 -0.25838,0 -0.60289,-0.275607 -0.32728,-0.292834 -0.84405,-0.637344 -0.51676,-0.344509 -1.25746,-0.620117 -0.72347,-0.292834 -1.72255,-0.292834 -2.04983,0 -3.15226,1.584745 -1.08521,1.56752 -1.08521,4.564755 0,1.49862 0.27561,2.6355 0.29283,1.11966 0.84405,1.87758 0.55121,0.75792 1.34359,1.13688 0.80959,0.36174 1.84312,0.36174 0.98186,0 1.72255,-0.31006 0.7407,-0.31006 1.27469,-0.6718 0.55121,-0.37896 0.91295,-0.67179 0.37896,-0.31006 0.58567,-0.31006 0.12057,0 0.2067,0.0689 0.0861,0.0689 0.13781,0.24116 0.0689,0.15503 0.0861,0.41341 0.0344,0.24116 0.0344,0.58567 z"
         style="font-family:Calibri;-inkscape-font-specification:Calibri;fill:#214478;fill-opacity:1"
         id="path902" />
      <path
         d="m 367.41687,110.49262 q 0,0.20671 -0.1378,0.31006 -0.1378,0.10336 -0.37896,0.15503 -0.24116,0.0517 -0.70625,0.0517 -0.44786,0 -0.72347,-0.0517 -0.25838,-0.0517 -0.37896,-0.15503 -0.12057,-0.10335 -0.12057,-0.31006 v -1.55029 q -1.01631,1.08521 -2.27377,1.6881 -1.24023,0.60289 -2.6355,0.60289 -1.22301,0 -2.22209,-0.32728 -0.98185,-0.31006 -1.6881,-0.91295 -0.68901,-0.6029 -1.0852,-1.4814 -0.37896,-0.8785 -0.37896,-1.99815 0,-1.30914 0.53399,-2.27377 0.53399,-0.96463 1.53307,-1.60197 0.99908,-0.63734 2.44602,-0.9474 1.44694,-0.32728 3.25561,-0.32728 h 2.13596 v -1.20579 q 0,-0.895724 -0.18948,-1.584744 -0.18948,-0.689019 -0.62011,-1.136882 -0.41342,-0.465088 -1.08521,-0.68902 -0.67179,-0.241156 -1.65365,-0.241156 -1.05075,0 -1.8948,0.258382 -0.82682,0.241157 -1.46417,0.551216 -0.62011,0.292833 -1.05075,0.551215 -0.41341,0.241157 -0.62012,0.241157 -0.1378,0 -0.24116,-0.0689 -0.10335,-0.0689 -0.18948,-0.206706 -0.0689,-0.137804 -0.10335,-0.34451 -0.0344,-0.223931 -0.0344,-0.482313 0,-0.430637 0.0517,-0.671794 0.0689,-0.258383 0.29283,-0.482314 0.24116,-0.223931 0.8096,-0.516765 0.56844,-0.310058 1.30913,-0.551215 0.7407,-0.258383 1.6192,-0.413412 0.8785,-0.172255 1.77423,-0.172255 1.67087,0 2.8422,0.378961 1.17134,0.378961 1.89481,1.119657 0.72347,0.72347 1.05075,1.808676 0.32728,1.085206 0.32728,2.532144 z m -2.82498,-7.07967 h -2.42879 q -1.17133,0 -2.03261,0.2067 -0.86127,0.18948 -1.42971,0.58567 -0.56844,0.37896 -0.84405,0.93018 -0.25838,0.53399 -0.25838,1.24023 0,1.20579 0.75792,1.92926 0.77514,0.70624 2.15318,0.70624 1.11966,0 2.06706,-0.56844 0.96463,-0.56844 2.01538,-1.73977 z"
         style="font-family:Calibri;-inkscape-font-specification:Calibri;fill:#214478;fill-opacity:1"
         id="path904" />
      <path
         d="m 385.79647,94.524596 q 0.51677,0 0.70625,0.241157 0.18948,0.223932 0.18948,0.671794 V 110.4754 q 0,0.1378 -0.0689,0.24116 -0.0689,0.0861 -0.24116,0.15503 -0.15503,0.0689 -0.43064,0.10335 -0.2756,0.0344 -0.67179,0.0344 -0.43064,0 -0.70625,-0.0344 -0.2756,-0.0345 -0.44786,-0.10335 -0.15503,-0.0689 -0.22393,-0.15503 -0.0689,-0.10336 -0.0689,-0.24116 V 96.884488 h -8.00985 v 8.647192 q 0,1.60197 0.46508,2.4288 0.48232,0.8096 1.70533,0.8096 0.39618,0 0.70624,-0.0689 0.31006,-0.0861 0.55122,-0.17225 0.24115,-0.0861 0.41341,-0.15503 0.17225,-0.0861 0.31006,-0.0861 0.0861,0 0.15503,0.0517 0.0861,0.0345 0.12058,0.15503 0.0517,0.12058 0.0861,0.32728 0.0344,0.20671 0.0344,0.51677 0,0.49954 -0.0689,0.79237 -0.0689,0.27561 -0.2067,0.43064 -0.13781,0.1378 -0.41341,0.25838 -0.27561,0.12058 -0.63735,0.18948 -0.34451,0.0861 -0.74069,0.1378 -0.39619,0.0517 -0.79238,0.0517 -1.20578,0 -2.06706,-0.31006 -0.86127,-0.32728 -1.41249,-0.96463 -0.55121,-0.65457 -0.80959,-1.63642 -0.24116,-0.99908 -0.24116,-2.34266 v -9.060612 h -2.17041 q -0.25838,0 -0.41341,-0.275608 -0.15503,-0.275607 -0.15503,-0.895725 0,-0.327284 0.0345,-0.551216 0.0517,-0.223931 0.12058,-0.361735 0.0689,-0.155029 0.17225,-0.206706 0.12058,-0.0689 0.25838,-0.0689 h 2.15319 v -3.686254 q 0,-0.120579 0.0517,-0.223932 0.0689,-0.103353 0.22393,-0.172255 0.17225,-0.08613 0.44786,-0.120578 0.27561,-0.03445 0.68902,-0.03445 0.43064,0 0.70625,0.03445 0.2756,0.03445 0.43063,0.120578 0.15503,0.0689 0.22393,0.172255 0.0689,0.103353 0.0689,0.223932 v 3.686254 z m 1.22301,-4.788686 q 0,0.999079 -0.37896,1.360814 -0.37896,0.361735 -1.39526,0.361735 -0.99908,0 -1.37804,-0.34451 -0.36174,-0.361735 -0.36174,-1.343588 0,-0.999078 0.37896,-1.360813 0.37897,-0.361736 1.39527,-0.361736 0.99908,0 1.36081,0.361736 0.37896,0.344509 0.37896,1.326362 z m -5.80499,4.788686 z"
         style="font-family:Calibri;-inkscape-font-specification:Calibri;fill:#214478;fill-opacity:1"
         id="path906" />
      <path
         d="m 406.38093,102.55167 q 0,1.89481 -0.49954,3.49678 -0.49954,1.58474 -1.49861,2.73885 -0.98186,1.15411 -2.48048,1.80868 -1.48139,0.63734 -3.44509,0.63734 -1.91203,0 -3.34175,-0.56844 -1.41249,-0.56844 -2.35989,-1.65365 -0.9474,-1.0852 -1.41249,-2.6355 -0.46509,-1.55029 -0.46509,-3.514 0,-1.8948 0.48232,-3.479546 0.49953,-1.60197 1.48139,-2.756078 0.99908,-1.154108 2.48047,-1.791451 1.48139,-0.637343 3.46232,-0.637343 1.91203,0 3.32452,0.568441 1.42972,0.568441 2.37712,1.653647 0.9474,1.085206 1.41249,2.6355 0.48231,1.55029 0.48231,3.49677 z m -2.99723,0.18948 q 0,-1.25746 -0.24116,-2.37711 -0.22393,-1.11966 -0.75792,-1.963709 -0.53399,-0.844049 -1.44694,-1.326362 -0.91295,-0.499539 -2.27377,-0.499539 -1.25746,0 -2.17041,0.447862 -0.89572,0.447863 -1.48139,1.274686 -0.58567,0.809598 -0.8785,1.929252 -0.27561,1.11966 -0.27561,2.44602 0,1.27469 0.22393,2.39435 0.24116,1.11965 0.77515,1.9637 0.55122,0.82682 1.46417,1.32636 0.91295,0.48232 2.27376,0.48232 1.24024,0 2.15319,-0.44787 0.91295,-0.44786 1.49861,-1.25746 0.58567,-0.80959 0.86128,-1.92925 0.27561,-1.11966 0.27561,-2.46325 z"
         style="font-family:Calibri;-inkscape-font-specification:Calibri;fill:#214478;fill-opacity:1"
         id="path908" />
      <path
         d="m 423.91648,110.4754 q 0,0.1378 -0.0689,0.24116 -0.0689,0.0861 -0.22393,0.15503 -0.15503,0.0689 -0.43064,0.10335 -0.27561,0.0344 -0.68902,0.0344 -0.43063,0 -0.70624,-0.0344 -0.27561,-0.0345 -0.43064,-0.10335 -0.15503,-0.0689 -0.22393,-0.15503 -0.0689,-0.10336 -0.0689,-0.24116 v -9.07783 q 0,-1.32637 -0.20671,-2.135964 -0.2067,-0.809598 -0.60289,-1.395265 -0.39619,-0.585666 -1.03353,-0.895725 -0.62012,-0.310059 -1.44694,-0.310059 -1.06798,0 -2.13596,0.757921 -1.06798,0.757922 -2.23932,2.222089 V 110.4754 q 0,0.1378 -0.0689,0.24116 -0.0689,0.0861 -0.22393,0.15503 -0.15503,0.0689 -0.43064,0.10335 -0.2756,0.0344 -0.70624,0.0344 -0.41341,0 -0.68902,-0.0344 -0.27561,-0.0345 -0.44786,-0.10335 -0.15503,-0.0689 -0.22394,-0.15503 -0.0517,-0.10336 -0.0517,-0.24116 V 94.972459 q 0,-0.137804 0.0517,-0.223931 0.0517,-0.103353 0.20671,-0.172255 0.15503,-0.08613 0.39619,-0.103353 0.24115,-0.03445 0.63734,-0.03445 0.37896,0 0.62012,0.03445 0.25838,0.01722 0.39618,0.103353 0.13781,0.0689 0.18948,0.172255 0.0689,0.08613 0.0689,0.223931 v 2.049833 q 1.30913,-1.464166 2.60105,-2.13596 1.30913,-0.68902 2.63549,-0.68902 1.5503,0 2.60105,0.53399 1.06798,0.516765 1.72255,1.395265 0.65457,0.8785 0.93018,2.067058 0.29283,1.171334 0.29283,2.824985 z"
         style="font-family:Calibri;-inkscape-font-specification:Calibri;fill:#214478;fill-opacity:1"
         id="path910" />
    </g>
  </g>
</svg>
