<?xml version="1.0" encoding="UTF-8" standalone="no"?>
<!-- Created with Inkscape (http://www.inkscape.org/) -->

<svg
   width="1292.5984"
   height="264.56693"
   viewBox="0 0 341.99998 69.999999"
   version="1.1"
   id="svg1"
   sodipodi:docname="logo-vector-with-title.svg"
   inkscape:version="1.2.2 (b0a8486541, 2022-12-01)"
   inkscape:export-filename="logo-vector-with-title.png"
   inkscape:export-xdpi="35"
   inkscape:export-ydpi="35"
   xmlns:inkscape="http://www.inkscape.org/namespaces/inkscape"
   xmlns:sodipodi="http://sodipodi.sourceforge.net/DTD/sodipodi-0.dtd"
   xmlns:xlink="http://www.w3.org/1999/xlink"
   xmlns="http://www.w3.org/2000/svg"
   xmlns:svg="http://www.w3.org/2000/svg">
  <sodipodi:namedview
     id="namedview1"
     pagecolor="#ffffff"
     bordercolor="#000000"
     borderopacity="0.25"
     inkscape:showpageshadow="2"
     inkscape:pageopacity="0"
     inkscape:pagecheckerboard="true"
     inkscape:deskcolor="#d1d1d1"
     inkscape:document-units="mm"
     showguides="true"
     inkscape:zoom="1.1"
     inkscape:cx="595"
     inkscape:cy="193.63636"
     inkscape:window-width="1920"
     inkscape:window-height="1011"
     inkscape:window-x="1920"
     inkscape:window-y="32"
     inkscape:window-maximized="1"
     inkscape:current-layer="layer1"
     showgrid="false">
    <sodipodi:guide
       position="37.263004,34.999998"
       orientation="1,0"
       id="guide2192"
       inkscape:locked="false" />
    <sodipodi:guide
       position="37.263004,34.999999"
       orientation="0,-1"
       id="guide2239"
       inkscape:locked="false" />
  </sodipodi:namedview>
  <defs
     id="defs1">
    <linearGradient
       inkscape:collect="always"
       id="linearGradient6131">
      <stop
         style="stop-color:#3771c8;stop-opacity:1;"
         offset="0"
         id="stop6127" />
      <stop
         style="stop-color:#3771c8;stop-opacity:1;"
         offset="1"
         id="stop6129" />
    </linearGradient>
    <linearGradient
       inkscape:collect="always"
       xlink:href="#linearGradient6131"
       id="linearGradient6133"
       x1="165.52174"
       y1="117.17612"
       x2="423.38733"
       y2="86.910927"
       gradientUnits="userSpaceOnUse"
       gradientTransform="translate(0.52916667)" />
  </defs>
  <g
     inkscape:label="Layer 1"
     inkscape:groupmode="layer"
     id="layer1"
     transform="translate(-84.479843,-67.043526)">
    <rect
       style="fill:#ffffff;fill-opacity:1;stroke:none;stroke-width:2;stroke-dasharray:none;stroke-opacity:1"
       id="rect3337"
       width="342"
       height="70"
       x="84.479843"
       y="67.043526"
       rx="5"
       ry="5" />
    <g
       aria-label="IceBox Application"
       id="text3950"
       style="font-size:28.2222px;font-family:'DejaVu Sans';-inkscape-font-specification:'DejaVu Sans';fill:#3771c8;stroke-width:2">
      <path
         d="m 159.02709,91.371996 h 4.78179 v 20.574094 h -4.78179 z"
         style="font-weight:bold;font-stretch:semi-condensed;-inkscape-font-specification:'DejaVu Sans Bold Semi-Condensed'"
         id="path489" />
      <path
         d="m 179.49095,96.994388 v 4.023872 q -0.89573,-0.68902 -1.81901,-1.019751 -0.90951,-0.330729 -1.88791,-0.330729 -1.86035,0 -2.89388,1.21267 -1.03353,1.19889 -1.03353,3.36241 0,2.16352 1.03353,3.37619 1.03353,1.1989 2.89388,1.1989 1.0473,0 1.98437,-0.34451 0.93706,-0.34451 1.72255,-1.01975 v 4.03765 q -1.03353,0.42719 -2.1084,0.6339 -1.07487,0.22048 -2.14974,0.22048 -3.76204,0 -5.88422,-2.13596 -2.12217,-2.14973 -2.12217,-5.9669 0,-3.81716 2.12217,-5.953117 2.12218,-2.149738 5.88422,-2.149738 1.08865,0 2.14974,0.220486 1.06109,0.206705 2.1084,0.633897 z"
         style="font-weight:bold;font-stretch:semi-condensed;-inkscape-font-specification:'DejaVu Sans Bold Semi-Condensed'"
         id="path491" />
      <path
         d="m 197.18494,104.18774 v 1.4056 h -10.37662 q 0.15159,1.73633 1.11621,2.60449 0.97841,0.86816 2.71474,0.86816 1.40559,0 2.86631,-0.45475 1.4745,-0.46853 3.01791,-1.4056 v 3.80339 q -1.57097,0.66145 -3.15571,0.99218 -1.57096,0.34451 -3.14192,0.34451 -3.77583,0 -5.87044,-2.12218 -2.08084,-2.13595 -2.08084,-5.98068 0,-3.77582 2.05328,-5.939337 2.05327,-2.163518 5.64995,-2.163518 3.27973,0 5.23654,2.191079 1.97059,2.191076 1.97059,5.856656 z m -4.5613,-1.63986 q 0,-1.4056 -0.74414,-2.25998 -0.73036,-0.868167 -1.92925,-0.868167 -1.28158,0 -2.09462,0.813047 -0.79926,0.79926 -1.00597,2.3151 z"
         style="font-weight:bold;font-stretch:semi-condensed;-inkscape-font-specification:'DejaVu Sans Bold Semi-Condensed'"
         id="path493" />
      <path
         d="m 208.15412,99.337051 q 1.12999,0 1.70876,-0.551215 0.59256,-0.551215 0.59256,-1.626084 0,-1.061088 -0.59256,-1.612303 -0.57877,-0.564995 -1.70876,-0.564995 h -2.63205 v 4.354597 z m 0.16536,8.998579 q 1.44694,0 2.16352,-0.67523 0.73036,-0.67524 0.73036,-2.0395 0,-1.3367 -0.73036,-1.99815 -0.71658,-0.67524 -2.16352,-0.67524 h -2.79741 v 5.38812 z m 4.43728,-7.40006 q 1.5434,0.4961 2.38401,1.83279 0.8406,1.3367 0.8406,3.27973 0,2.97656 -1.81901,4.43728 -1.80523,1.46072 -5.49837,1.46072 h -7.92371 V 91.371996 h 7.16579 q 3.85851,0 5.58105,1.295355 1.73633,1.295355 1.73633,4.147892 0,1.50206 -0.6339,2.563149 -0.62011,1.047308 -1.83279,1.557178 z"
         style="font-weight:bold;font-stretch:semi-condensed;-inkscape-font-specification:'DejaVu Sans Bold Semi-Condensed'"
         id="path495" />
      <path
         d="m 226.49579,99.66778 q -1.4745,0 -2.2462,1.18511 -0.7717,1.17133 -0.7717,3.38997 0,2.21864 0.7717,3.40375 0.7717,1.17134 2.2462,1.17134 1.46072,0 2.21864,-1.17134 0.7717,-1.18511 0.7717,-3.40375 0,-2.21864 -0.7717,-3.38997 -0.75792,-1.18511 -2.21864,-1.18511 z m 0,-3.527775 q 3.59668,0 5.60861,2.149738 2.01194,2.149737 2.01194,5.953117 0,3.80339 -2.01194,5.95312 -2.01193,2.14974 -5.60861,2.14974 -3.58289,0 -5.62239,-2.14974 -2.02571,-2.14973 -2.02571,-5.95312 0,-3.80338 2.02571,-5.953117 2.0395,-2.149738 5.62239,-2.149738 z"
         style="font-weight:bold;font-stretch:semi-condensed;-inkscape-font-specification:'DejaVu Sans Bold Semi-Condensed'"
         id="path497" />
      <path
         d="m 240.85494,104.04994 -5.01606,-7.537865 h 4.69911 l 2.83876,4.575085 2.88009,-4.575085 h 4.69911 l -5.01605,7.510305 5.2641,7.92371 h -4.69911 l -3.12814,-4.87825 -3.08681,4.87825 h -4.6991 z"
         style="font-weight:bold;font-stretch:semi-condensed;-inkscape-font-specification:'DejaVu Sans Bold Semi-Condensed'"
         id="path499" />
      <path
         d="m 273.98295,108.19783 h -7.46896 l -1.18511,3.74826 h -4.79557 l 6.86262,-20.574094 h 5.6913 l 6.86262,20.574094 h -4.80935 z m -6.28385,-3.81716 h 5.07118 l -2.52181,-8.185544 z"
         style="font-weight:bold;font-stretch:semi-condensed;-inkscape-font-specification:'DejaVu Sans Bold Semi-Condensed'"
         id="path501" />
      <path
         d="m 286.63333,109.71367 v 8.10286 h -4.43728 V 96.512075 h 4.43728 v 2.259981 q 0.92329,-1.350477 2.0395,-1.984374 1.11621,-0.647677 2.56315,-0.647677 2.56315,0 4.21679,2.273761 1.65365,2.259984 1.65365,5.829094 0,3.56912 -1.65365,5.84288 -1.65364,2.25998 -4.21679,2.25998 -1.44694,0 -2.56315,-0.6339 -1.11621,-0.64767 -2.0395,-1.99815 z m 2.949,-9.990769 q -1.41937,0 -2.19108,1.171329 -0.75792,1.15755 -0.75792,3.34863 0,2.19108 0.75792,3.36241 0.77171,1.15755 2.19108,1.15755 1.43316,0 2.1773,-1.15755 0.75792,-1.15755 0.75792,-3.36241 0,-2.20486 -0.75792,-3.36241 -0.74414,-1.157549 -2.1773,-1.157549 z"
         style="font-weight:bold;font-stretch:semi-condensed;-inkscape-font-specification:'DejaVu Sans Bold Semi-Condensed'"
         id="path503" />
      <path
         d="m 304.80964,109.71367 v 8.10286 h -4.43728 V 96.512075 h 4.43728 v 2.259981 q 0.92329,-1.350477 2.0395,-1.984374 1.11621,-0.647677 2.56315,-0.647677 2.56314,0 4.21679,2.273761 1.65364,2.259984 1.65364,5.829094 0,3.56912 -1.65364,5.84288 -1.65365,2.25998 -4.21679,2.25998 -1.44694,0 -2.56315,-0.6339 -1.11621,-0.64767 -2.0395,-1.99815 z m 2.949,-9.990769 q -1.41938,0 -2.19108,1.171329 -0.75792,1.15755 -0.75792,3.34863 0,2.19108 0.75792,3.36241 0.7717,1.15755 2.19108,1.15755 1.43316,0 2.1773,-1.15755 0.75792,-1.15755 0.75792,-3.36241 0,-2.20486 -0.75792,-3.36241 -0.74414,-1.157549 -2.1773,-1.157549 z"
         style="font-weight:bold;font-stretch:semi-condensed;-inkscape-font-specification:'DejaVu Sans Bold Semi-Condensed'"
         id="path505" />
      <path
         d="m 318.54868,90.503833 h 4.43728 v 21.442257 h -4.43728 z"
         style="font-weight:bold;font-stretch:semi-condensed;-inkscape-font-specification:'DejaVu Sans Bold Semi-Condensed'"
         id="path507" />
      <path
         d="m 327.24408,96.512075 h 4.43728 v 15.434015 h -4.43728 z m 0,-6.008242 h 4.43728 v 4.023868 h -4.43728 z"
         style="font-weight:bold;font-stretch:semi-condensed;-inkscape-font-specification:'DejaVu Sans Bold Semi-Condensed'"
         id="path509" />
      <path
         d="m 347.15672,96.994388 v 4.023872 q -0.89572,-0.68902 -1.81901,-1.019751 -0.9095,-0.330729 -1.88791,-0.330729 -1.86035,0 -2.89387,1.21267 -1.03353,1.19889 -1.03353,3.36241 0,2.16352 1.03353,3.37619 1.03352,1.1989 2.89387,1.1989 1.04731,0 1.98438,-0.34451 0.93706,-0.34451 1.72254,-1.01975 v 4.03765 q -1.03352,0.42719 -2.10839,0.6339 -1.07487,0.22048 -2.14974,0.22048 -3.76204,0 -5.88422,-2.13596 -2.12218,-2.14973 -2.12218,-5.9669 0,-3.81716 2.12218,-5.953117 2.12218,-2.149738 5.88422,-2.149738 1.08865,0 2.14974,0.220486 1.06108,0.206705 2.10839,0.633897 z"
         style="font-weight:bold;font-stretch:semi-condensed;-inkscape-font-specification:'DejaVu Sans Bold Semi-Condensed'"
         id="path511" />
      <path
         d="m 357.2164,105.00078 q -1.39182,0 -2.09462,0.52366 -0.70279,0.52365 -0.70279,1.5434 0,0.93706 0.56499,1.4745 0.565,0.52365 1.57096,0.52365 1.25402,0 2.1084,-0.99218 0.85438,-1.00597 0.85438,-2.50803 v -0.565 z m 6.77994,-1.86035 v 8.80566 h -4.47862 v -2.28754 q -0.89572,1.4056 -2.01193,2.05327 -1.11621,0.6339 -2.71473,0.6339 -2.16352,0 -3.514,-1.39182 -1.3367,-1.40559 -1.3367,-3.63801 0,-2.71474 1.68121,-3.98253 1.68121,-1.2678 5.27788,-1.2678 h 2.61827 v -0.38585 q 0,-1.17133 -0.8406,-1.708762 -0.82682,-0.551215 -2.57693,-0.551215 -1.43316,0 -2.65961,0.316949 -1.22645,0.316948 -2.28754,0.950848 v -3.762044 q 1.43316,-0.38585 2.86631,-0.578776 1.44694,-0.206705 2.8801,-0.206705 3.76204,0 5.42947,1.653644 1.66742,1.639865 1.66742,5.346781 z"
         style="font-weight:bold;font-stretch:semi-condensed;-inkscape-font-specification:'DejaVu Sans Bold Semi-Condensed'"
         id="path513" />
      <path
         d="m 372.96736,92.129917 v 4.382158 h 4.57508 v 3.527775 h -4.57508 v 6.54568 q 0,1.07487 0.37207,1.46072 0.38585,0.37207 1.52962,0.37207 h 2.28754 v 3.52777 h -3.80338 q -2.63205,0 -3.73448,-1.21267 -1.10243,-1.22646 -1.10243,-4.14789 v -6.54568 h -2.20486 v -3.527775 h 2.20486 v -4.382158 z"
         style="font-weight:bold;font-stretch:semi-condensed;-inkscape-font-specification:'DejaVu Sans Bold Semi-Condensed'"
         id="path515" />
      <path
         d="m 380.25717,96.512075 h 4.43728 v 15.434015 h -4.43728 z m 0,-6.008242 h 4.43728 v 4.023868 h -4.43728 z"
         style="font-weight:bold;font-stretch:semi-condensed;-inkscape-font-specification:'DejaVu Sans Bold Semi-Condensed'"
         id="path517" />
      <path
         d="m 395.55339,99.66778 q -1.4745,0 -2.2462,1.18511 -0.7717,1.17133 -0.7717,3.38997 0,2.21864 0.7717,3.40375 0.7717,1.17134 2.2462,1.17134 1.46072,0 2.21864,-1.17134 0.7717,-1.18511 0.7717,-3.40375 0,-2.21864 -0.7717,-3.38997 -0.75792,-1.18511 -2.21864,-1.18511 z m 0,-3.527775 q 3.59668,0 5.60861,2.149738 2.01194,2.149737 2.01194,5.953117 0,3.80339 -2.01194,5.95312 -2.01193,2.14974 -5.60861,2.14974 -3.5829,0 -5.62239,-2.14974 -2.02572,-2.14973 -2.02572,-5.95312 0,-3.80338 2.02572,-5.953117 2.03949,-2.149738 5.62239,-2.149738 z"
         style="font-weight:bold;font-stretch:semi-condensed;-inkscape-font-specification:'DejaVu Sans Bold Semi-Condensed'"
         id="path519" />
      <path
         d="m 420.35805,102.54788 v 9.39821 h -4.46484 v -1.52962 -5.66373 q 0,-1.99816 -0.0827,-2.75608 -0.0827,-0.75792 -0.2756,-1.11621 -0.26183,-0.48231 -0.71658,-0.74414 -0.44097,-0.275605 -1.00597,-0.275605 -1.39182,0 -2.19108,1.198895 -0.78548,1.18511 -0.78548,3.29351 v 7.59298 h -4.43728 V 96.512075 h 4.43728 v 2.259981 q 1.00597,-1.350477 2.13596,-1.984374 1.12999,-0.647677 2.49425,-0.647677 2.39778,0 3.63801,1.639864 1.25402,1.639864 1.25402,4.768011 z"
         style="font-weight:bold;font-stretch:semi-condensed;-inkscape-font-specification:'DejaVu Sans Bold Semi-Condensed'"
         id="path521" />
    </g>
    <g
       id="g1730"
       transform="translate(81.379981,59.900048)">
      <path
         sodipodi:type="star"
         style="fill:#3771c8;fill-rule:evenodd;stroke:none;stroke-width:4;stroke-linecap:round;stroke-linejoin:round;stroke-dasharray:none;paint-order:markers fill stroke"
         id="path1"
         inkscape:flatsided="true"
         sodipodi:sides="6"
         sodipodi:cx="0"
         sodipodi:cy="0"
         sodipodi:r1="19.709715"
         sodipodi:r2="17.069115"
         sodipodi:arg1="0.52359878"
         sodipodi:arg2="1.0471976"
         inkscape:rounded="0.6"
         inkscape:randomized="0"
         d="M 17.069114,9.8548575 C 11.156199,20.096326 11.825829,19.709715 -8.6756275e-8,19.709715 -11.825829,19.709715 -11.156199,20.096326 -17.069114,9.8548574 c -5.912914,-10.24146833 -5.912914,-9.46824667 0,-19.7097149 C -11.156199,-20.096326 -11.825829,-19.709715 8.6756273e-8,-19.709715 11.825829,-19.709715 11.156199,-20.096326 17.069114,-9.8548574 c 5.912914,10.24146833 5.912914,9.46824667 0,19.7097149 z"
         transform="matrix(1.4901666,0,0,1.4901666,40.362867,42.143478)" />
      <path
         sodipodi:type="star"
         style="opacity:1;fill:#3d88d4;fill-opacity:1;fill-rule:evenodd;stroke:none;stroke-width:1.2;stroke-linecap:round;stroke-linejoin:round"
         id="path5299"
         inkscape:flatsided="true"
         sodipodi:sides="4"
         sodipodi:cx="30.519939"
         sodipodi:cy="18.858589"
         sodipodi:r1="12.838813"
         sodipodi:r2="9.0784121"
         sodipodi:arg1="0.78539816"
         sodipodi:arg2="1.5707963"
         inkscape:rounded="0.7"
         inkscape:randomized="0"
         d="m 39.598351,27.937001 c -8.987169,8.987169 -9.169654,8.987169 -18.156823,0 -8.987169,-8.987169 -8.987169,-9.169654 0,-18.1568234 8.987169,-8.98716902 9.169654,-8.98716902 18.156823,-10e-8 8.987169,8.9871685 8.987169,9.1696545 0,18.1568235 z"
         transform="matrix(0.76612411,0,0,1.2566681,19.139872,18.444491)" />
      <path
         sodipodi:type="star"
         style="opacity:1;fill:#4198dc;fill-opacity:1;fill-rule:evenodd;stroke:none;stroke-width:1.2;stroke-linecap:round;stroke-linejoin:round"
         id="path4607"
         inkscape:flatsided="true"
         sodipodi:sides="4"
         sodipodi:cx="30.519939"
         sodipodi:cy="18.858589"
         sodipodi:r1="12.838813"
         sodipodi:r2="9.0784121"
         sodipodi:arg1="0.78539816"
         sodipodi:arg2="1.5707963"
         inkscape:rounded="0.7"
         inkscape:randomized="0"
         d="m 39.598351,27.937001 c -8.987169,8.987169 -9.169654,8.987169 -18.156823,0 -8.987169,-8.987169 -8.987169,-9.169654 0,-18.1568234 8.987169,-8.98716902 9.169654,-8.98716902 18.156823,-10e-8 8.987169,8.9871685 8.987169,9.1696545 0,18.1568235 z"
         transform="matrix(0.76612411,0,0,1.2566681,24.670406,18.444491)" />
      <path
         sodipodi:type="star"
         style="opacity:1;fill:#49b2e9;fill-opacity:1;fill-rule:evenodd;stroke:none;stroke-width:1.2;stroke-linecap:round;stroke-linejoin:round"
         id="path2"
         inkscape:flatsided="true"
         sodipodi:sides="4"
         sodipodi:cx="30.519939"
         sodipodi:cy="18.858589"
         sodipodi:r1="12.838813"
         sodipodi:r2="9.0784121"
         sodipodi:arg1="0.78539816"
         sodipodi:arg2="1.5707963"
         inkscape:rounded="0.7"
         inkscape:randomized="0"
         d="m 39.598351,27.937001 c -8.987169,8.987169 -9.169654,8.987169 -18.156823,0 -8.987169,-8.987169 -8.987169,-9.169654 0,-18.1568234 8.987169,-8.98716902 9.169654,-8.98716902 18.156823,-10e-8 8.987169,8.9871685 8.987169,9.1696545 0,18.1568235 z"
         transform="matrix(0.76612411,0,0,1.2566681,30.20094,18.444491)" />
      <g
         aria-label="ice"
         id="text1671"
         style="font-weight:bold;font-size:49.389px;font-family:'oblo bold';-inkscape-font-specification:'oblo bold,  Bold';fill:#ffffff;stroke-width:2"
         transform="matrix(0.90229017,0,0,0.90229017,4.1437052,4.0574305)">
        <path
           d="m 20.207741,49.626565 c -1.037169,0 -1.827393,-0.839613 -1.827393,-1.876782 V 37.039422 c 0,-1.037169 0.790224,-1.876782 1.827393,-1.876782 0.98778,0 1.827393,0.839613 1.827393,1.876782 v 10.710361 c 0,1.037169 -0.839613,1.876782 -1.827393,1.876782 z m 0,-17.236761 c -1.037169,0 -1.827393,-0.839613 -1.827393,-1.827393 0,-1.037169 0.790224,-1.876782 1.827393,-1.876782 0.98778,0 1.827393,0.839613 1.827393,1.876782 0,0.98778 -0.839613,1.827393 -1.827393,1.827393 z"
           id="path1738"
           sodipodi:nodetypes="ssssssssssss" />
        <path
           d="m 32.851367,50.713123 c -4.691955,0 -8.544297,-3.852342 -8.544297,-8.544297 0,-4.790733 3.901731,-8.593686 8.544297,-8.593686 3.556008,0 6.618126,2.173116 7.90224,5.284623 0.09878,0.246945 0.148167,0.49389 0.148167,0.691446 0,1.037169 -0.889002,1.876782 -1.827393,1.876782 -0.740835,0 -1.432281,-0.444501 -1.728615,-1.135947 -0.691446,-1.778004 -2.370672,-3.012729 -4.494399,-3.012729 -2.716395,0 -4.889511,2.173116 -4.889511,4.889511 0,2.716395 2.173116,4.889511 4.889511,4.889511 1.97556,0 3.802953,-1.234725 4.494399,-3.012729 0.296334,-0.691446 0.98778,-1.135947 1.728615,-1.135947 0.938391,0 1.827393,0.839613 1.827393,1.876782 0,0.197556 -0.04939,0.444501 -0.148167,0.691446 -1.284114,3.160896 -4.44501,5.235234 -7.90224,5.235234 z"
           id="path1740" />
        <path
           d="m 54.916723,50.713123 c -4.790733,0 -8.593686,-3.901731 -8.593686,-8.544297 0,-4.741344 3.852342,-8.593686 8.593686,-8.593686 4.593177,0 8.544297,3.654786 8.544297,8.593686 0,0.98778 -0.790224,1.827393 -1.827393,1.827393 H 50.372935 c 0.740835,1.778004 2.46945,3.062118 4.543788,3.062118 0.592668,0 1.185336,-0.148167 1.679226,-0.296334 1.037169,-0.49389 1.778004,-1.333503 2.716395,-1.333503 0.938391,0 1.827393,0.839613 1.827393,1.827393 0,0.543279 -0.246945,1.037169 -0.642057,1.432281 -1.629837,1.284114 -3.407841,2.024949 -5.580957,2.024949 z m 4.494399,-10.421079 c -0.691446,-1.778004 -2.518839,-3.012729 -4.494399,-3.012729 -1.97556,0 -3.802953,1.234725 -4.543788,3.012729 z"
           id="path1742" />
      </g>
    </g>
  </g>
</svg>
