<?xml version="1.0" encoding="UTF-8" standalone="no"?>
<!-- Created with Inkscape (http://www.inkscape.org/) -->

<svg
   width="1303.937"
   height="264.56693"
   viewBox="0 0 344.99999 69.999999"
   version="1.1"
   id="svg1"
   sodipodi:docname="logo-vector-with-title.svg"
   inkscape:version="1.2.2 (b0a8486541, 2022-12-01)"
   inkscape:export-filename="logo-vector-with-title.png"
   inkscape:export-xdpi="35"
   inkscape:export-ydpi="35"
   xmlns:inkscape="http://www.inkscape.org/namespaces/inkscape"
   xmlns:sodipodi="http://sodipodi.sourceforge.net/DTD/sodipodi-0.dtd"
   xmlns:xlink="http://www.w3.org/1999/xlink"
   xmlns="http://www.w3.org/2000/svg"
   xmlns:svg="http://www.w3.org/2000/svg">
  <sodipodi:namedview
     id="namedview1"
     pagecolor="#ffffff"
     bordercolor="#000000"
     borderopacity="0.25"
     inkscape:showpageshadow="2"
     inkscape:pageopacity="0"
     inkscape:pagecheckerboard="true"
     inkscape:deskcolor="#d1d1d1"
     inkscape:document-units="mm"
     showguides="true"
     inkscape:zoom="0.77781746"
     inkscape:cx="620.96832"
     inkscape:cy="250.70149"
     inkscape:window-width="1920"
     inkscape:window-height="1011"
     inkscape:window-x="0"
     inkscape:window-y="32"
     inkscape:window-maximized="1"
     inkscape:current-layer="layer1"
     showgrid="false">
    <sodipodi:guide
       position="5.4079276,35.825584"
       orientation="0,-1"
       id="guide4054"
       inkscape:locked="false" />
  </sodipodi:namedview>
  <defs
     id="defs1">
    <linearGradient
       inkscape:collect="always"
       id="linearGradient6131">
      <stop
         style="stop-color:#3771c8;stop-opacity:1;"
         offset="0"
         id="stop6127" />
      <stop
         style="stop-color:#3771c8;stop-opacity:1;"
         offset="1"
         id="stop6129" />
    </linearGradient>
    <linearGradient
       inkscape:collect="always"
       xlink:href="#linearGradient6131"
       id="linearGradient6133"
       x1="165.52174"
       y1="117.17612"
       x2="423.38733"
       y2="86.910927"
       gradientUnits="userSpaceOnUse"
       gradientTransform="translate(0.52916667)" />
  </defs>
  <g
     inkscape:label="Layer 1"
     inkscape:groupmode="layer"
     id="layer1"
     transform="translate(-84.479843,-67.043526)">
    <rect
       style="fill:#ffffff;stroke:none;stroke-width:2;stroke-dasharray:none;stroke-opacity:1"
       id="rect3337"
       width="345"
       height="70"
       x="84.479843"
       y="67.043526"
       rx="5"
       ry="5" />
    <text
       xml:space="preserve"
       style="font-size:28.2222px;font-family:'DejaVu Sans';-inkscape-font-specification:'DejaVu Sans';fill:#3771c8;stroke-width:2"
       x="158.74889"
       y="110.4091"
       id="text3950"><tspan
         sodipodi:role="line"
         id="tspan3948"
         style="font-style:normal;font-variant:normal;font-weight:bold;font-stretch:semi-condensed;font-size:28.2222px;font-family:'DejaVu Sans';-inkscape-font-specification:'DejaVu Sans Bold Semi-Condensed';stroke-width:2"
         x="158.74889"
         y="110.4091">IceBox Application</tspan></text>
    <g
       id="g2203"
       transform="translate(81.379981,59.900048)">
      <path
         sodipodi:type="star"
         style="fill:#3771c8;fill-rule:evenodd;stroke:none;stroke-width:4;stroke-linecap:round;stroke-linejoin:round;stroke-dasharray:none;paint-order:markers fill stroke"
         id="path1"
         inkscape:flatsided="true"
         sodipodi:sides="6"
         sodipodi:cx="0"
         sodipodi:cy="0"
         sodipodi:r1="19.709715"
         sodipodi:r2="17.069115"
         sodipodi:arg1="0.52359878"
         sodipodi:arg2="1.0471976"
         inkscape:rounded="0.6"
         inkscape:randomized="0"
         d="M 17.069114,9.8548575 C 11.156199,20.096326 11.825829,19.709715 -8.6756275e-8,19.709715 -11.825829,19.709715 -11.156199,20.096326 -17.069114,9.8548574 c -5.912914,-10.24146833 -5.912914,-9.46824667 0,-19.7097149 C -11.156199,-20.096326 -11.825829,-19.709715 8.6756273e-8,-19.709715 11.825829,-19.709715 11.156199,-20.096326 17.069114,-9.8548574 c 5.912914,10.24146833 5.912914,9.46824667 0,19.7097149 z"
         transform="matrix(1.4901666,0,0,1.4901666,40.362867,42.143478)" />
      <path
         sodipodi:type="star"
         style="opacity:1;fill:#3d88d4;fill-opacity:1;fill-rule:evenodd;stroke:none;stroke-width:1.2;stroke-linecap:round;stroke-linejoin:round"
         id="path5299-3"
         inkscape:flatsided="true"
         sodipodi:sides="4"
         sodipodi:cx="30.519939"
         sodipodi:cy="18.858589"
         sodipodi:r1="12.838813"
         sodipodi:r2="9.0784121"
         sodipodi:arg1="0.78539816"
         sodipodi:arg2="1.5707963"
         inkscape:rounded="0.7"
         inkscape:randomized="0"
         d="m 39.598351,27.937001 c -8.987169,8.987169 -9.169654,8.987169 -18.156823,0 -8.987169,-8.987169 -8.987169,-9.169654 0,-18.1568234 8.987169,-8.98716902 9.169654,-8.98716902 18.156823,-10e-8 8.987169,8.9871685 8.987169,9.1696545 0,18.1568235 z"
         transform="matrix(0.76612411,0,0,1.2566681,19.139872,18.444491)" />
      <path
         sodipodi:type="star"
         style="opacity:1;fill:#4198dc;fill-opacity:1;fill-rule:evenodd;stroke:none;stroke-width:1.2;stroke-linecap:round;stroke-linejoin:round"
         id="path4607-6"
         inkscape:flatsided="true"
         sodipodi:sides="4"
         sodipodi:cx="30.519939"
         sodipodi:cy="18.858589"
         sodipodi:r1="12.838813"
         sodipodi:r2="9.0784121"
         sodipodi:arg1="0.78539816"
         sodipodi:arg2="1.5707963"
         inkscape:rounded="0.7"
         inkscape:randomized="0"
         d="m 39.598351,27.937001 c -8.987169,8.987169 -9.169654,8.987169 -18.156823,0 -8.987169,-8.987169 -8.987169,-9.169654 0,-18.1568234 8.987169,-8.98716902 9.169654,-8.98716902 18.156823,-10e-8 8.987169,8.9871685 8.987169,9.1696545 0,18.1568235 z"
         transform="matrix(0.76612411,0,0,1.2566681,24.670406,18.444491)" />
      <path
         sodipodi:type="star"
         style="opacity:1;fill:#49b2e9;fill-opacity:1;fill-rule:evenodd;stroke:none;stroke-width:1.2;stroke-linecap:round;stroke-linejoin:round"
         id="path2-7"
         inkscape:flatsided="true"
         sodipodi:sides="4"
         sodipodi:cx="30.519939"
         sodipodi:cy="18.858589"
         sodipodi:r1="12.838813"
         sodipodi:r2="9.0784121"
         sodipodi:arg1="0.78539816"
         sodipodi:arg2="1.5707963"
         inkscape:rounded="0.7"
         inkscape:randomized="0"
         d="m 39.598351,27.937001 c -8.987169,8.987169 -9.169654,8.987169 -18.156823,0 -8.987169,-8.987169 -8.987169,-9.169654 0,-18.1568234 8.987169,-8.98716902 9.169654,-8.98716902 18.156823,-10e-8 8.987169,8.9871685 8.987169,9.1696545 0,18.1568235 z"
         transform="matrix(0.76612411,0,0,1.2566681,30.20094,18.444491)" />
      <g
         aria-label="ice"
         id="text1671"
         style="font-weight:bold;font-size:49.389px;font-family:'oblo bold';-inkscape-font-specification:'oblo bold,  Bold';fill:#ffffff;stroke-width:2"
         transform="matrix(0.90229017,0,0,0.90229017,4.1437052,4.0574305)">
        <path
           d="m 20.207741,49.626565 c -1.037169,0 -1.827393,-0.839613 -1.827393,-1.876782 V 37.039422 c 0,-1.037169 0.790224,-1.876782 1.827393,-1.876782 0.98778,0 1.827393,0.839613 1.827393,1.876782 v 10.710361 c 0,1.037169 -0.839613,1.876782 -1.827393,1.876782 z m 0,-17.236761 c -1.037169,0 -1.827393,-0.839613 -1.827393,-1.827393 0,-1.037169 0.790224,-1.876782 1.827393,-1.876782 0.98778,0 1.827393,0.839613 1.827393,1.876782 0,0.98778 -0.839613,1.827393 -1.827393,1.827393 z"
           id="path1738"
           sodipodi:nodetypes="ssssssssssss" />
        <path
           d="m 32.851367,50.713123 c -4.691955,0 -8.544297,-3.852342 -8.544297,-8.544297 0,-4.790733 3.901731,-8.593686 8.544297,-8.593686 3.556008,0 6.618126,2.173116 7.90224,5.284623 0.09878,0.246945 0.148167,0.49389 0.148167,0.691446 0,1.037169 -0.889002,1.876782 -1.827393,1.876782 -0.740835,0 -1.432281,-0.444501 -1.728615,-1.135947 -0.691446,-1.778004 -2.370672,-3.012729 -4.494399,-3.012729 -2.716395,0 -4.889511,2.173116 -4.889511,4.889511 0,2.716395 2.173116,4.889511 4.889511,4.889511 1.97556,0 3.802953,-1.234725 4.494399,-3.012729 0.296334,-0.691446 0.98778,-1.135947 1.728615,-1.135947 0.938391,0 1.827393,0.839613 1.827393,1.876782 0,0.197556 -0.04939,0.444501 -0.148167,0.691446 -1.284114,3.160896 -4.44501,5.235234 -7.90224,5.235234 z"
           id="path1740" />
        <path
           d="m 54.916723,50.713123 c -4.790733,0 -8.593686,-3.901731 -8.593686,-8.544297 0,-4.741344 3.852342,-8.593686 8.593686,-8.593686 4.593177,0 8.544297,3.654786 8.544297,8.593686 0,0.98778 -0.790224,1.827393 -1.827393,1.827393 H 50.372935 c 0.740835,1.778004 2.46945,3.062118 4.543788,3.062118 0.592668,0 1.185336,-0.148167 1.679226,-0.296334 1.037169,-0.49389 1.778004,-1.333503 2.716395,-1.333503 0.938391,0 1.827393,0.839613 1.827393,1.827393 0,0.543279 -0.246945,1.037169 -0.642057,1.432281 -1.629837,1.284114 -3.407841,2.024949 -5.580957,2.024949 z m 4.494399,-10.421079 c -0.691446,-1.778004 -2.518839,-3.012729 -4.494399,-3.012729 -1.97556,0 -3.802953,1.234725 -4.543788,3.012729 z"
           id="path1742" />
      </g>
    </g>
  </g>
</svg>
