<?xml version="1.0" encoding="UTF-8" standalone="no"?>
<!-- Created with Inkscape (http://www.inkscape.org/) -->

<svg
   width="1303.937"
   height="264.56693"
   viewBox="0 0 344.99999 69.999999"
   version="1.1"
   id="svg1"
   sodipodi:docname="logo-vector-with-title.svg"
   inkscape:version="1.2.2 (b0a8486541, 2022-12-01)"
   inkscape:export-filename="logo-vector-with-title.png"
   inkscape:export-xdpi="35"
   inkscape:export-ydpi="35"
   xmlns:inkscape="http://www.inkscape.org/namespaces/inkscape"
   xmlns:sodipodi="http://sodipodi.sourceforge.net/DTD/sodipodi-0.dtd"
   xmlns:xlink="http://www.w3.org/1999/xlink"
   xmlns="http://www.w3.org/2000/svg"
   xmlns:svg="http://www.w3.org/2000/svg">
  <sodipodi:namedview
     id="namedview1"
     pagecolor="#ffffff"
     bordercolor="#000000"
     borderopacity="0.25"
     inkscape:showpageshadow="2"
     inkscape:pageopacity="0"
     inkscape:pagecheckerboard="true"
     inkscape:deskcolor="#d1d1d1"
     inkscape:document-units="mm"
     showguides="true"
     inkscape:zoom="0.77781746"
     inkscape:cx="624.18244"
     inkscape:cy="250.70149"
     inkscape:window-width="1920"
     inkscape:window-height="1011"
     inkscape:window-x="0"
     inkscape:window-y="32"
     inkscape:window-maximized="1"
     inkscape:current-layer="layer1"
     showgrid="false">
    <sodipodi:guide
       position="5.4079276,35.825584"
       orientation="0,-1"
       id="guide4054"
       inkscape:locked="false" />
  </sodipodi:namedview>
  <defs
     id="defs1">
    <linearGradient
       inkscape:collect="always"
       id="linearGradient6131">
      <stop
         style="stop-color:#3771c8;stop-opacity:1;"
         offset="0"
         id="stop6127" />
      <stop
         style="stop-color:#3771c8;stop-opacity:1;"
         offset="1"
         id="stop6129" />
    </linearGradient>
    <linearGradient
       inkscape:collect="always"
       xlink:href="#linearGradient6131"
       id="linearGradient6133"
       x1="165.52174"
       y1="117.17612"
       x2="423.38733"
       y2="86.910927"
       gradientUnits="userSpaceOnUse"
       gradientTransform="translate(0.52916667)" />
  </defs>
  <g
     inkscape:label="Layer 1"
     inkscape:groupmode="layer"
     id="layer1"
     transform="translate(-84.479843,-67.043526)">
    <rect
       style="fill:#ffffff;stroke:none;stroke-width:2;stroke-dasharray:none;stroke-opacity:1"
       id="rect3337"
       width="345"
       height="70"
       x="84.479843"
       y="67.043526"
       rx="5"
       ry="5" />
    <path
       sodipodi:type="star"
       style="opacity:0.99;fill:#55ddff;fill-opacity:0.485577;fill-rule:evenodd;stroke:none;stroke-width:1.2;stroke-linecap:round;stroke-linejoin:round"
       id="path2"
       inkscape:flatsided="true"
       sodipodi:sides="4"
       sodipodi:cx="30.519939"
       sodipodi:cy="18.858589"
       sodipodi:r1="12.838813"
       sodipodi:r2="9.0784121"
       sodipodi:arg1="0.78539816"
       sodipodi:arg2="1.5707963"
       inkscape:rounded="0.7"
       inkscape:randomized="0"
       d="m 39.598351,27.937001 c -8.987169,8.987169 -9.169654,8.987169 -18.156823,0 -8.987169,-8.987169 -8.987169,-9.169654 0,-18.1568234 8.987169,-8.98716902 9.169654,-8.98716902 18.156823,-10e-8 8.987169,8.9871685 8.987169,9.1696545 0,18.1568235 z"
       transform="matrix(0.66137024,0,0,1.1299014,116.53166,80.735189)" />
    <g
       aria-label="ic"
       id="text1"
       style="font-weight:bold;font-size:26.4583px;font-family:Calibri;-inkscape-font-specification:'Calibri Bold';text-align:center;letter-spacing:0px;text-anchor:middle;fill:#ffffff;fill-rule:evenodd;stroke-width:1.72908;stroke-linecap:round;stroke-linejoin:round"
       transform="translate(81.529111,59.900057)">
      <path
         d="m 25.802941,31.443893 q 0,1.033527 -0.71055,1.718239 -0.697631,0.671793 -1.666562,0.671793 -0.981851,0 -1.692401,-0.697631 -0.697631,-0.71055 -0.697631,-1.692401 0,-0.968932 0.697631,-1.666563 0.71055,-0.71055 1.692401,-0.71055 0.968931,0 1.666562,0.71055 0.71055,0.697631 0.71055,1.666563 z m 1.744078,14.314353 v 3.12642 h -8.384491 v -3.12642 h 2.067055 v -7.273448 h -2.067055 v -3.178097 h 6.369113 v 10.451545 z"
         style="font-family:'Rockwell Nova';-inkscape-font-specification:'Rockwell Nova Bold'"
         id="path882" />
      <path
         d="m 40.168972,36.443581 v -1.13688 h 2.958472 v 5.503533 h -3.061825 q -1.085204,-2.247922 -3.307287,-2.247922 -1.356505,0 -2.247922,0.99477 -0.878499,0.99477 -0.878499,2.480466 0,1.640725 0.839741,2.70009 0.85266,1.046446 2.260841,1.046446 1.020609,0 1.937864,-0.56844 0.917256,-0.56844 1.498615,-1.601967 l 3.358964,1.485696 q -1.111042,2.092892 -2.674252,3.100582 -1.563211,1.007689 -4.211624,1.007689 -3.436479,0 -5.451857,-1.873269 -2.002459,-1.886187 -2.002459,-5.219313 0,-1.98954 0.917255,-3.578588 0.930175,-1.589048 2.506304,-2.493385 1.576129,-0.917255 3.449398,-0.917255 2.144569,0 4.108271,1.317747 z"
         style="font-family:'Rockwell Nova';-inkscape-font-specification:'Rockwell Nova Bold'"
         id="path884" />
    </g>
    <g
       aria-label="e"
       id="text2"
       style="font-weight:bold;font-size:26.4583px;font-family:Calibri;-inkscape-font-specification:'Calibri Bold';text-align:center;letter-spacing:0px;text-anchor:middle;fill:#ffffff;fill-rule:evenodd;stroke-width:1.72908;stroke-linecap:round;stroke-linejoin:round"
       transform="translate(81.529111,59.900057)">
      <path
         d="M 62.327849,43.00648 H 52.199281 q 0.155029,1.56321 1.072284,2.480465 0.930175,0.904337 2.390032,0.904337 1.614887,0 3.152259,-1.601968 l 3.358964,1.085204 q -1.111042,1.666563 -2.751767,2.506304 -1.640725,0.826822 -3.888647,0.826822 -2.247922,0 -3.97908,-0.839741 -1.718239,-0.85266 -2.674252,-2.402951 -0.943093,-1.550291 -0.943093,-3.643184 0,-2.067055 0.981851,-3.746537 0.99477,-1.679482 2.674251,-2.622575 1.692401,-0.956013 3.669023,-0.956013 2.144569,0 3.733617,0.99477 1.589048,0.981851 2.441708,2.803443 0.865579,1.808673 0.891418,4.211624 z M 55.0544,37.8776 q -1.162718,0 -1.873268,0.671793 -0.697631,0.671793 -0.878498,2.054136 h 5.658562 Q 57.780328,39.389134 56.966426,38.639827 56.165442,37.8776 55.0544,37.8776 Z"
         style="font-family:'Rockwell Nova';-inkscape-font-specification:'Rockwell Nova Bold'"
         id="path887" />
    </g>
    <g
       id="g1885"
       transform="translate(81.529111,59.900057)">
      <path
         sodipodi:type="star"
         style="fill:#3771c8;fill-rule:evenodd;stroke:none;stroke-width:4;stroke-linecap:round;stroke-linejoin:round;stroke-dasharray:none;paint-order:markers fill stroke"
         id="path1-3"
         inkscape:flatsided="true"
         sodipodi:sides="6"
         sodipodi:cx="0"
         sodipodi:cy="0"
         sodipodi:r1="19.709715"
         sodipodi:r2="17.069115"
         sodipodi:arg1="0.52359878"
         sodipodi:arg2="1.0471976"
         inkscape:rounded="0.6"
         inkscape:randomized="0"
         d="M 17.069114,9.8548575 C 11.156199,20.096326 11.825829,19.709715 -8.6756275e-8,19.709715 -11.825829,19.709715 -11.156199,20.096326 -17.069114,9.8548574 c -5.912914,-10.24146833 -5.912914,-9.46824667 0,-19.7097149 C -11.156199,-20.096326 -11.825829,-19.709715 8.6756273e-8,-19.709715 11.825829,-19.709715 11.156199,-20.096326 17.069114,-9.8548574 c 5.912914,10.24146833 5.912914,9.46824667 0,19.7097149 z"
         transform="matrix(1.4901666,0,0,1.4901666,40.362867,42.143478)" />
      <path
         sodipodi:type="star"
         style="opacity:1;fill:#3d88d4;fill-opacity:1;fill-rule:evenodd;stroke:none;stroke-width:1.2;stroke-linecap:round;stroke-linejoin:round"
         id="path5299"
         inkscape:flatsided="true"
         sodipodi:sides="4"
         sodipodi:cx="30.519939"
         sodipodi:cy="18.858589"
         sodipodi:r1="12.838813"
         sodipodi:r2="9.0784121"
         sodipodi:arg1="0.78539816"
         sodipodi:arg2="1.5707963"
         inkscape:rounded="0.7"
         inkscape:randomized="0"
         d="m 39.598351,27.937001 c -8.987169,8.987169 -9.169654,8.987169 -18.156823,0 -8.987169,-8.987169 -8.987169,-9.169654 0,-18.1568234 8.987169,-8.98716902 9.169654,-8.98716902 18.156823,-10e-8 8.987169,8.9871685 8.987169,9.1696545 0,18.1568235 z"
         transform="matrix(0.73303482,0,0,1.252335,22.232012,18.526208)" />
      <path
         sodipodi:type="star"
         style="opacity:1;fill:#4198dc;fill-opacity:1;fill-rule:evenodd;stroke:none;stroke-width:1.2;stroke-linecap:round;stroke-linejoin:round"
         id="path4607"
         inkscape:flatsided="true"
         sodipodi:sides="4"
         sodipodi:cx="30.519939"
         sodipodi:cy="18.858589"
         sodipodi:r1="12.838813"
         sodipodi:r2="9.0784121"
         sodipodi:arg1="0.78539816"
         sodipodi:arg2="1.5707963"
         inkscape:rounded="0.7"
         inkscape:randomized="0"
         d="m 39.598351,27.937001 c -8.987169,8.987169 -9.169654,8.987169 -18.156823,0 -8.987169,-8.987169 -8.987169,-9.169654 0,-18.1568234 8.987169,-8.98716902 9.169654,-8.98716902 18.156823,-10e-8 8.987169,8.9871685 8.987169,9.1696545 0,18.1568235 z"
         transform="matrix(0.73303482,0,0,1.252335,27.523679,18.526208)" />
      <path
         sodipodi:type="star"
         style="opacity:1;fill:#49b2e9;fill-opacity:1;fill-rule:evenodd;stroke:none;stroke-width:1.2;stroke-linecap:round;stroke-linejoin:round"
         id="path2-6"
         inkscape:flatsided="true"
         sodipodi:sides="4"
         sodipodi:cx="30.519939"
         sodipodi:cy="18.858589"
         sodipodi:r1="12.838813"
         sodipodi:r2="9.0784121"
         sodipodi:arg1="0.78539816"
         sodipodi:arg2="1.5707963"
         inkscape:rounded="0.7"
         inkscape:randomized="0"
         d="m 39.598351,27.937001 c -8.987169,8.987169 -9.169654,8.987169 -18.156823,0 -8.987169,-8.987169 -8.987169,-9.169654 0,-18.1568234 8.987169,-8.98716902 9.169654,-8.98716902 18.156823,-10e-8 8.987169,8.9871685 8.987169,9.1696545 0,18.1568235 z"
         transform="matrix(0.73303482,0,0,1.252335,32.815346,18.526208)" />
      <g
         aria-label="ic"
         id="text1-7"
         style="font-weight:bold;font-size:26.4583px;font-family:Calibri;-inkscape-font-specification:'Calibri Bold';text-align:center;letter-spacing:0px;text-anchor:middle;fill:#ffffff;fill-rule:evenodd;stroke-width:1.72908;stroke-linecap:round;stroke-linejoin:round">
        <path
           d="m 25.802941,31.443893 q 0,1.033527 -0.71055,1.718239 -0.697631,0.671793 -1.666562,0.671793 -0.981851,0 -1.692401,-0.697631 -0.697631,-0.71055 -0.697631,-1.692401 0,-0.968932 0.697631,-1.666563 0.71055,-0.71055 1.692401,-0.71055 0.968931,0 1.666562,0.71055 0.71055,0.697631 0.71055,1.666563 z m 1.744078,14.314353 v 3.12642 h -8.384491 v -3.12642 h 2.067055 v -7.273448 h -2.067055 v -3.178097 h 6.369113 v 10.451545 z"
           style="font-family:'Rockwell Nova';-inkscape-font-specification:'Rockwell Nova Bold'"
           id="path882-5" />
        <path
           d="m 40.168972,36.443581 v -1.13688 h 2.958472 v 5.503533 h -3.061825 q -1.085204,-2.247922 -3.307287,-2.247922 -1.356505,0 -2.247922,0.99477 -0.878499,0.99477 -0.878499,2.480466 0,1.640725 0.839741,2.70009 0.85266,1.046446 2.260841,1.046446 1.020609,0 1.937864,-0.56844 0.917256,-0.56844 1.498615,-1.601967 l 3.358964,1.485696 q -1.111042,2.092892 -2.674252,3.100582 -1.563211,1.007689 -4.211624,1.007689 -3.436479,0 -5.451857,-1.873269 -2.002459,-1.886187 -2.002459,-5.219313 0,-1.98954 0.917255,-3.578588 0.930175,-1.589048 2.506304,-2.493385 1.576129,-0.917255 3.449398,-0.917255 2.144569,0 4.108271,1.317747 z"
           style="font-family:'Rockwell Nova';-inkscape-font-specification:'Rockwell Nova Bold'"
           id="path884-3" />
      </g>
      <g
         aria-label="e"
         id="text2-5"
         style="font-weight:bold;font-size:26.4583px;font-family:Calibri;-inkscape-font-specification:'Calibri Bold';text-align:center;letter-spacing:0px;text-anchor:middle;fill:#ffffff;fill-rule:evenodd;stroke-width:1.72908;stroke-linecap:round;stroke-linejoin:round">
        <path
           d="M 62.327849,43.00648 H 52.199281 q 0.155029,1.56321 1.072284,2.480465 0.930175,0.904337 2.390032,0.904337 1.614887,0 3.152259,-1.601968 l 3.358964,1.085204 q -1.111042,1.666563 -2.751767,2.506304 -1.640725,0.826822 -3.888647,0.826822 -2.247922,0 -3.97908,-0.839741 -1.718239,-0.85266 -2.674252,-2.402951 -0.943093,-1.550291 -0.943093,-3.643184 0,-2.067055 0.981851,-3.746537 0.99477,-1.679482 2.674251,-2.622575 1.692401,-0.956013 3.669023,-0.956013 2.144569,0 3.733617,0.99477 1.589048,0.981851 2.441708,2.803443 0.865579,1.808673 0.891418,4.211624 z M 55.0544,37.8776 q -1.162718,0 -1.873268,0.671793 -0.697631,0.671793 -0.878498,2.054136 h 5.658562 Q 57.780328,39.389134 56.966426,38.639827 56.165442,37.8776 55.0544,37.8776 Z"
           style="font-family:'Rockwell Nova';-inkscape-font-specification:'Rockwell Nova Bold'"
           id="path887-6" />
      </g>
    </g>
    <text
       xml:space="preserve"
       style="font-size:28.2222px;font-family:'DejaVu Sans';-inkscape-font-specification:'DejaVu Sans';fill:#3771c8;stroke-width:2"
       x="158.74889"
       y="110.4091"
       id="text3950"><tspan
         sodipodi:role="line"
         id="tspan3948"
         style="font-style:normal;font-variant:normal;font-weight:bold;font-stretch:semi-condensed;font-size:28.2222px;font-family:'DejaVu Sans';-inkscape-font-specification:'DejaVu Sans Bold Semi-Condensed';stroke-width:2"
         x="158.74889"
         y="110.4091">IceBox Application</tspan></text>
  </g>
</svg>
